<?xml version="1.0" encoding="utf-8" standalone="no"?>
<!DOCTYPE svg PUBLIC "-//W3C//DTD SVG 1.1//EN"
  "http://www.w3.org/Graphics/SVG/1.1/DTD/svg11.dtd">
<svg height="144pt" version="1.1" viewBox="0 0 360 144" width="360pt" xmlns="http://www.w3.org/2000/svg" xmlns:xlink="http://www.w3.org/1999/xlink">
 <metadata>
  <rdf:RDF xmlns:cc="http://creativecommons.org/ns#" xmlns:dc="http://purl.org/dc/elements/1.1/" xmlns:rdf="http://www.w3.org/1999/02/22-rdf-syntax-ns#">
   <cc:Work>
    <dc:type rdf:resource="http://purl.org/dc/dcmitype/StillImage"/>
    <dc:date>2021-08-13T10:29:33.459937</dc:date>
    <dc:format>image/svg+xml</dc:format>
    <dc:creator>
     <cc:Agent>
      <dc:title>Matplotlib v3.4.2, https://matplotlib.org/</dc:title>
     </cc:Agent>
    </dc:creator>
   </cc:Work>
  </rdf:RDF>
 </metadata>
 <defs>
  <style type="text/css">*{stroke-linecap:butt;stroke-linejoin:round;}</style>
 </defs>
 <g id="figure_1">
  <g id="patch_1">
   <path d="M 0 144 
L 360 144 
L 360 0 
L 0 0 
z
" style="fill:#ffffff;"/>
  </g>
  <g id="axes_1">
   <g id="patch_2">
    <path d="M 14.3 129.7 
L 349.2 129.7 
L 349.2 10.8 
L 14.3 10.8 
z
" style="fill:#ffffff;"/>
   </g>
   <g id="PathCollection_1">
    <defs>
     <path d="M -3 3 
L 3 3 
L 3 -3 
L -3 -3 
z
" id="m4f97c59f12" style="stroke:#f25d41;"/>
    </defs>
    <g clip-path="url(#pcf7722ea5d)">
     <use style="fill:#f25d41;stroke:#f25d41;" x="234.994426" xlink:href="#m4f97c59f12" y="129.224875"/>
    </g>
   </g>
   <g id="PathCollection_2">
    <g clip-path="url(#pcf7722ea5d)">
     <use style="fill:#f25d41;stroke:#f25d41;" x="17.649" xlink:href="#m4f97c59f12" y="48.047538"/>
    </g>
   </g>
   <g id="PathCollection_3">
    <defs>
     <path d="M 0 1.581139 
C 0.419323 1.581139 0.821528 1.41454 1.118034 1.118034 
C 1.41454 0.821528 1.581139 0.419323 1.581139 0 
C 1.581139 -0.419323 1.41454 -0.821528 1.118034 -1.118034 
C 0.821528 -1.41454 0.419323 -1.581139 0 -1.581139 
C -0.419323 -1.581139 -0.821528 -1.41454 -1.118034 -1.118034 
C -1.41454 -0.821528 -1.581139 -0.419323 -1.581139 0 
C -1.581139 0.419323 -1.41454 0.821528 -1.118034 1.118034 
C -0.821528 1.41454 -0.419323 1.581139 0 1.581139 
z
" id="m7781ee7c3b" style="stroke:#94c1d8;"/>
    </defs>
    <g clip-path="url(#pcf7722ea5d)">
     <use style="fill:#94c1d8;stroke:#94c1d8;" x="291.35631" xlink:href="#m7781ee7c3b" y="129.7"/>
     <use style="fill:#94c1d8;stroke:#94c1d8;" x="225.376001" xlink:href="#m7781ee7c3b" y="129.7"/>
     <use style="fill:#94c1d8;stroke:#94c1d8;" x="300.550945" xlink:href="#m7781ee7c3b" y="129.7"/>
     <use style="fill:#94c1d8;stroke:#94c1d8;" x="336.556805" xlink:href="#m7781ee7c3b" y="129.7"/>
     <use style="fill:#94c1d8;stroke:#94c1d8;" x="300.560811" xlink:href="#m7781ee7c3b" y="129.7"/>
     <use style="fill:#94c1d8;stroke:#94c1d8;" x="233.1595" xlink:href="#m7781ee7c3b" y="129.7"/>
     <use style="fill:#94c1d8;stroke:#94c1d8;" x="62.634652" xlink:href="#m7781ee7c3b" y="129.7"/>
     <use style="fill:#94c1d8;stroke:#94c1d8;" x="272.278457" xlink:href="#m7781ee7c3b" y="129.7"/>
     <use style="fill:#94c1d8;stroke:#94c1d8;" x="132.966283" xlink:href="#m7781ee7c3b" y="129.7"/>
     <use style="fill:#94c1d8;stroke:#94c1d8;" x="194.504494" xlink:href="#m7781ee7c3b" y="129.7"/>
    </g>
   </g>
   <g id="PathCollection_4">
    <g clip-path="url(#pcf7722ea5d)">
     <use style="fill:#94c1d8;stroke:#94c1d8;" x="14.3" xlink:href="#m7781ee7c3b" y="27.50823"/>
     <use style="fill:#94c1d8;stroke:#94c1d8;" x="14.3" xlink:href="#m7781ee7c3b" y="52.896874"/>
     <use style="fill:#94c1d8;stroke:#94c1d8;" x="14.3" xlink:href="#m7781ee7c3b" y="25.434262"/>
     <use style="fill:#94c1d8;stroke:#94c1d8;" x="14.3" xlink:href="#m7781ee7c3b" y="20.759859"/>
     <use style="fill:#94c1d8;stroke:#94c1d8;" x="14.3" xlink:href="#m7781ee7c3b" y="25.432229"/>
     <use style="fill:#94c1d8;stroke:#94c1d8;" x="14.3" xlink:href="#m7781ee7c3b" y="48.942404"/>
     <use style="fill:#94c1d8;stroke:#94c1d8;" x="14.3" xlink:href="#m7781ee7c3b" y="194.35942"/>
     <use style="fill:#94c1d8;stroke:#94c1d8;" x="14.3" xlink:href="#m7781ee7c3b" y="32.953944"/>
     <use style="fill:#94c1d8;stroke:#94c1d8;" x="14.3" xlink:href="#m7781ee7c3b" y="119.457555"/>
     <use style="fill:#94c1d8;stroke:#94c1d8;" x="14.3" xlink:href="#m7781ee7c3b" y="71.109013"/>
    </g>
   </g>
   <g id="PathCollection_5">
    <defs>
     <path d="M -3 3 
L 3 3 
L 3 -3 
L -3 -3 
z
" id="m3f6b492c0c" style="stroke:#076ea1;"/>
    </defs>
    <g clip-path="url(#pcf7722ea5d)">
     <use style="fill:#076ea1;stroke:#076ea1;" x="17.649" xlink:href="#m3f6b492c0c" y="61.885379"/>
    </g>
   </g>
   <g id="matplotlib.axis_1"/>
   <g id="matplotlib.axis_2"/>
   <g id="LineCollection_1">
    <path clip-path="url(#pcf7722ea5d)" d="M 234.994426 129.7 
L 234.994426 48.047538 
" style="fill:none;stroke:#f25d41;stroke-width:1.5;"/>
   </g>
   <g id="LineCollection_2">
    <path clip-path="url(#pcf7722ea5d)" d="M 14.3 48.047538 
L 234.994426 48.047538 
" style="fill:none;stroke:#f25d41;stroke-width:1.5;"/>
   </g>
   <g id="LineCollection_3">
    <path clip-path="url(#pcf7722ea5d)" d="M 291.35631 129.7 
L 291.35631 27.50823 
" style="fill:none;stroke:#94c1d8;stroke-width:0.75;"/>
    <path clip-path="url(#pcf7722ea5d)" d="M 225.376001 129.7 
L 225.376001 52.896874 
" style="fill:none;stroke:#94c1d8;stroke-width:0.75;"/>
    <path clip-path="url(#pcf7722ea5d)" d="M 300.550945 129.7 
L 300.550945 25.434262 
" style="fill:none;stroke:#94c1d8;stroke-width:0.75;"/>
    <path clip-path="url(#pcf7722ea5d)" d="M 336.556805 129.7 
L 336.556805 20.759859 
" style="fill:none;stroke:#94c1d8;stroke-width:0.75;"/>
    <path clip-path="url(#pcf7722ea5d)" d="M 300.560811 129.7 
L 300.560811 25.432229 
" style="fill:none;stroke:#94c1d8;stroke-width:0.75;"/>
    <path clip-path="url(#pcf7722ea5d)" d="M 233.1595 129.7 
L 233.1595 48.942404 
" style="fill:none;stroke:#94c1d8;stroke-width:0.75;"/>
    <path clip-path="url(#pcf7722ea5d)" d="M 62.634652 129.7 
L 62.634652 145 
" style="fill:none;stroke:#94c1d8;stroke-width:0.75;"/>
    <path clip-path="url(#pcf7722ea5d)" d="M 272.278457 129.7 
L 272.278457 32.953944 
" style="fill:none;stroke:#94c1d8;stroke-width:0.75;"/>
    <path clip-path="url(#pcf7722ea5d)" d="M 132.966283 129.7 
L 132.966283 119.457555 
" style="fill:none;stroke:#94c1d8;stroke-width:0.75;"/>
    <path clip-path="url(#pcf7722ea5d)" d="M 194.504494 129.7 
L 194.504494 71.109013 
" style="fill:none;stroke:#94c1d8;stroke-width:0.75;"/>
   </g>
   <g id="LineCollection_4">
    <path clip-path="url(#pcf7722ea5d)" d="M 14.3 27.50823 
L 291.35631 27.50823 
" style="fill:none;stroke:#94c1d8;stroke-width:0.75;"/>
    <path clip-path="url(#pcf7722ea5d)" d="M 14.3 52.896874 
L 225.376001 52.896874 
" style="fill:none;stroke:#94c1d8;stroke-width:0.75;"/>
    <path clip-path="url(#pcf7722ea5d)" d="M 14.3 25.434262 
L 300.550945 25.434262 
" style="fill:none;stroke:#94c1d8;stroke-width:0.75;"/>
    <path clip-path="url(#pcf7722ea5d)" d="M 14.3 20.759859 
L 336.556805 20.759859 
" style="fill:none;stroke:#94c1d8;stroke-width:0.75;"/>
    <path clip-path="url(#pcf7722ea5d)" d="M 14.3 25.432229 
L 300.560811 25.432229 
" style="fill:none;stroke:#94c1d8;stroke-width:0.75;"/>
    <path clip-path="url(#pcf7722ea5d)" d="M 14.3 48.942404 
L 233.1595 48.942404 
" style="fill:none;stroke:#94c1d8;stroke-width:0.75;"/>
    <path clip-path="url(#pcf7722ea5d)" style="fill:none;stroke:#94c1d8;stroke-width:0.75;"/>
    <path clip-path="url(#pcf7722ea5d)" d="M 14.3 32.953944 
L 272.278457 32.953944 
" style="fill:none;stroke:#94c1d8;stroke-width:0.75;"/>
    <path clip-path="url(#pcf7722ea5d)" d="M 14.3 119.457555 
L 132.966283 119.457555 
" style="fill:none;stroke:#94c1d8;stroke-width:0.75;"/>
    <path clip-path="url(#pcf7722ea5d)" d="M 14.3 71.109013 
L 194.504494 71.109013 
" style="fill:none;stroke:#94c1d8;stroke-width:0.75;"/>
   </g>
   <g id="LineCollection_5">
    <path clip-path="url(#pcf7722ea5d)" d="M 14.3 61.885379 
L 208.542 61.885379 
" style="fill:none;stroke:#076ea1;stroke-width:1.5;"/>
   </g>
   <g id="line2d_1">
    <path clip-path="url(#pcf7722ea5d)" d="M 106.683958 145 
L 108.680909 142.95245 
L 111.725455 139.870028 
L 114.77 136.826873 
L 117.814545 133.822984 
L 120.859091 130.858362 
L 123.903636 127.933007 
L 126.948182 125.046918 
L 129.992727 122.200095 
L 133.037273 119.392539 
L 136.081818 116.624249 
L 139.126364 113.895226 
L 142.170909 111.20547 
L 145.215455 108.55498 
L 148.26 105.943756 
L 151.304545 103.371799 
L 154.349091 100.839109 
L 157.393636 98.345685 
L 160.438182 95.891527 
L 163.482727 93.476637 
L 166.527273 91.101012 
L 169.571818 88.764654 
L 172.616364 86.467563 
L 175.660909 84.209738 
L 178.705455 81.99118 
L 181.75 79.811888 
L 184.794545 77.671863 
L 187.839091 75.571104 
L 190.883636 73.509612 
L 193.928182 71.487386 
L 196.972727 69.504427 
L 200.017273 67.560734 
L 203.061818 65.656308 
L 206.106364 63.791149 
L 209.150909 61.965255 
L 212.195455 60.178629 
L 215.24 58.431269 
L 218.284545 56.723175 
L 221.329091 55.054348 
L 224.373636 53.424788 
L 227.418182 51.834494 
L 230.462727 50.283466 
L 233.507273 48.771705 
L 236.551818 47.299211 
L 239.596364 45.865983 
L 242.640909 44.472021 
L 245.685455 43.117326 
L 248.73 41.801898 
L 251.774545 40.525736 
L 254.819091 39.288841 
L 257.863636 38.091212 
L 260.908182 36.93285 
L 263.952727 35.813754 
L 266.997273 34.733925 
L 270.041818 33.693362 
L 273.086364 32.692066 
L 276.130909 31.730036 
L 279.175455 30.807273 
L 282.22 29.923776 
L 285.264545 29.079546 
L 288.309091 28.274582 
L 291.353636 27.508885 
L 294.398182 26.782455 
L 297.442727 26.095291 
L 300.487273 25.447393 
L 303.531818 24.838762 
L 306.576364 24.269398 
L 309.620909 23.7393 
L 312.665455 23.248468 
L 315.71 22.796903 
L 318.754545 22.384605 
L 321.799091 22.011573 
L 324.843636 21.677807 
L 327.888182 21.383308 
L 330.932727 21.128076 
L 333.977273 20.91211 
L 337.021818 20.735411 
L 340.066364 20.597978 
L 343.110909 20.499812 
L 346.155455 20.440912 
L 349.2 20.421279 
" style="fill:none;stroke:#252224;stroke-linecap:square;stroke-width:2;"/>
   </g>
   <g id="patch_3">
    <path d="M 14.3 129.7 
L 14.3 10.8 
" style="fill:none;stroke:#000000;stroke-linecap:square;stroke-linejoin:miter;stroke-width:0.8;"/>
   </g>
   <g id="patch_4">
    <path d="M 349.2 129.7 
L 349.2 10.8 
" style="fill:none;stroke:#000000;stroke-linecap:square;stroke-linejoin:miter;stroke-width:0.8;"/>
   </g>
   <g id="patch_5">
    <path d="M 14.3 129.7 
L 349.2 129.7 
" style="fill:none;stroke:#000000;stroke-linecap:square;stroke-linejoin:miter;stroke-width:0.8;"/>
   </g>
   <g id="patch_6">
    <path d="M 14.3 10.8 
L 349.2 10.8 
" style="fill:none;stroke:#000000;stroke-linecap:square;stroke-linejoin:miter;stroke-width:0.8;"/>
   </g>
   <g id="legend_1">
    <g id="patch_7">
     <path d="M 22.7 123.7 
L 102.62 123.7 
Q 105.02 123.7 105.02 121.3 
L 105.02 87.22 
Q 105.02 84.82 102.62 84.82 
L 22.7 84.82 
Q 20.3 84.82 20.3 87.22 
L 20.3 121.3 
Q 20.3 123.7 22.7 123.7 
z
" style="fill:#ffffff;opacity:0.8;stroke:#cccccc;stroke-linejoin:miter;"/>
    </g>
    <g id="line2d_2">
     <path d="M 25.1 94.54 
L 49.1 94.54 
" style="fill:none;stroke:#f25d41;stroke-width:1.5;"/>
    </g>
    <g id="text_1">
     <!-- $\varphi(\mathbb{E}[x])$ -->
     <g transform="translate(58.7 98.74)scale(0.12 -0.12)">
      <defs>
       <path d="M 2969 3034 
Q 2766 3034 2675 2581 
L 2259 438 
Q 2553 438 2916 763 
Q 3244 1053 3375 1750 
Q 3497 2400 3300 2750 
Q 3138 3034 2969 3034 
z
M 3063 3525 
Q 3513 3525 3819 3113 
Q 4147 2672 3981 1750 
Q 3828 903 3291 400 
Q 2784 -75 2159 -75 
L 1916 -1331 
L 1344 -1331 
L 1588 -78 
Q 963 -78 641 400 
Q 309 888 475 1747 
Q 647 2641 1166 3097 
Q 1556 3438 2084 3525 
L 1984 3016 
Q 1766 2944 1538 2700 
Q 1194 2341 1081 1747 
Q 963 1116 1156 756 
Q 1334 434 1688 434 
L 2103 2581 
Q 2288 3525 3063 3525 
z
" id="DejaVuSans-Oblique-3c6" transform="scale(0.015625)"/>
       <path d="M 1984 4856 
Q 1566 4138 1362 3434 
Q 1159 2731 1159 2009 
Q 1159 1288 1364 580 
Q 1569 -128 1984 -844 
L 1484 -844 
Q 1016 -109 783 600 
Q 550 1309 550 2009 
Q 550 2706 781 3412 
Q 1013 4119 1484 4856 
L 1984 4856 
z
" id="DejaVuSans-28" transform="scale(0.015625)"/>
       <path d="M 4250 4179 
L 4192 3942 
L 2150 3942 
L 1709 2266 
L 3514 2266 
L 3443 2029 
L 1645 2029 
L 1165 237 
L 3443 237 
L 3392 0 
L 109 0 
L 1229 4179 
L 4250 4179 
z
M 1914 3942 
L 1414 3942 
L 416 237 
L 928 237 
L 1914 3942 
z
" id="STIXNonUnicode-Italic-e156" transform="scale(0.015625)"/>
       <path d="M 550 4863 
L 1875 4863 
L 1875 4416 
L 1125 4416 
L 1125 -397 
L 1875 -397 
L 1875 -844 
L 550 -844 
L 550 4863 
z
" id="DejaVuSans-5b" transform="scale(0.015625)"/>
       <path d="M 3841 3500 
L 2234 1784 
L 3219 0 
L 2559 0 
L 1819 1388 
L 531 0 
L -166 0 
L 1556 1844 
L 641 3500 
L 1300 3500 
L 1972 2234 
L 3144 3500 
L 3841 3500 
z
" id="DejaVuSans-Oblique-78" transform="scale(0.015625)"/>
       <path d="M 1947 4863 
L 1947 -844 
L 622 -844 
L 622 -397 
L 1369 -397 
L 1369 4416 
L 622 4416 
L 622 4863 
L 1947 4863 
z
" id="DejaVuSans-5d" transform="scale(0.015625)"/>
       <path d="M 513 4856 
L 1013 4856 
Q 1481 4119 1714 3412 
Q 1947 2706 1947 2009 
Q 1947 1309 1714 600 
Q 1481 -109 1013 -844 
L 513 -844 
Q 928 -128 1133 580 
Q 1338 1288 1338 2009 
Q 1338 2731 1133 3434 
Q 928 4138 513 4856 
z
" id="DejaVuSans-29" transform="scale(0.015625)"/>
      </defs>
      <use transform="translate(0 0.015625)" xlink:href="#DejaVuSans-Oblique-3c6"/>
      <use transform="translate(65.966797 0.015625)" xlink:href="#DejaVuSans-28"/>
      <use transform="translate(104.980469 0.015625)" xlink:href="#STIXNonUnicode-Italic-e156"/>
      <use transform="translate(168.880463 0.015625)" xlink:href="#DejaVuSans-5b"/>
      <use transform="translate(207.894135 0.015625)" xlink:href="#DejaVuSans-Oblique-78"/>
      <use transform="translate(267.073822 0.015625)" xlink:href="#DejaVuSans-5d"/>
      <use transform="translate(306.087494 0.015625)" xlink:href="#DejaVuSans-29"/>
     </g>
    </g>
    <g id="line2d_3">
     <path d="M 25.1 112.18 
L 49.1 112.18 
" style="fill:none;stroke:#076ea1;stroke-width:1.5;"/>
    </g>
    <g id="text_2">
     <!-- $\mathbb{E}[\varphi(x)]$ -->
     <g transform="translate(58.7 116.38)scale(0.12 -0.12)">
      <use transform="translate(0 0.015625)" xlink:href="#STIXNonUnicode-Italic-e156"/>
      <use transform="translate(63.899994 0.015625)" xlink:href="#DejaVuSans-5b"/>
      <use transform="translate(102.913666 0.015625)" xlink:href="#DejaVuSans-Oblique-3c6"/>
      <use transform="translate(168.880463 0.015625)" xlink:href="#DejaVuSans-28"/>
      <use transform="translate(207.894135 0.015625)" xlink:href="#DejaVuSans-Oblique-78"/>
      <use transform="translate(267.073822 0.015625)" xlink:href="#DejaVuSans-29"/>
      <use transform="translate(306.087494 0.015625)" xlink:href="#DejaVuSans-5d"/>
     </g>
    </g>
   </g>
  </g>
 </g>
 <defs>
  <clipPath id="pcf7722ea5d">
   <rect height="118.9" width="334.9" x="14.3" y="10.8"/>
  </clipPath>
 </defs>
</svg>
